<?xml version="1.0" encoding="UTF-8" standalone="no"?>
<!-- Generator: Adobe Illustrator 23.0.6, SVG Export Plug-In . SVG Version: 6.00 Build 0)  -->

<svg
   version="1.1"
   id="MLIR"
   x="0px"
   y="0px"
   viewBox="0 0 40 40"
   xml:space="preserve"
   sodipodi:docname="pluginIcon.svg"
   width="40"
   height="40"
   inkscape:version="1.4 (e7c3feb100, 2024-10-09)"
   xmlns:inkscape="http://www.inkscape.org/namespaces/inkscape"
   xmlns:sodipodi="http://sodipodi.sourceforge.net/DTD/sodipodi-0.dtd"
   xmlns="http://www.w3.org/2000/svg"
   xmlns:svg="http://www.w3.org/2000/svg"><defs
   id="defs3" /><sodipodi:namedview
   id="namedview3"
   pagecolor="#ffffff"
   bordercolor="#999999"
   borderopacity="1"
   inkscape:showpageshadow="2"
   inkscape:pageopacity="0"
   inkscape:pagecheckerboard="true"
   inkscape:deskcolor="#d1d1d1"
   showborder="true"
   showgrid="true"
   inkscape:zoom="18.380734"
   inkscape:cx="17.899176"
   inkscape:cy="20.456202"
   inkscape:window-width="1920"
   inkscape:window-height="1128"
   inkscape:window-x="0"
   inkscape:window-y="0"
   inkscape:window-maximized="1"
   inkscape:current-layer="MLIR"><inkscape:grid
     id="grid3"
     units="px"
     originx="0"
     originy="0"
     spacingx="1"
     spacingy="1"
     empcolor="#0099e5"
     empopacity="0.30196078"
     color="#0099e5"
     opacity="0.14902"
     empspacing="5"
     enabled="false"
     visible="true" /></sodipodi:namedview>
<style
   type="text/css"
   id="style1">
	.st0{fill:#FFFFFF;}
	.st1{fill:#1B466C;}
	.st2{fill:#3775E0;}
	.st3{fill:#5EA8DB;}
</style>
<g
   id="Full_Color"
   transform="matrix(0.10825114,0,0,0.10825114,0.5147948,0.5147948)"
   style="stroke-width:9.23779">
	<g
   id="g3"
   style="stroke-width:9.23779">
		<path
   class="st1"
   d="M 324,263.14 180,346.28 36,263.14 V 96.86 L 180,13.72 324,96.86 Z"
   id="path1"
   style="stroke-width:9.23779" />
		<polygon
   class="st2"
   points="110.77,100.63 147.16,121.65 180,102.69 212.84,121.65 249.23,100.63 180,60.66 "
   id="polygon1"
   style="stroke-width:9.23779" />
		<polygon
   class="st3"
   points="249.23,259.37 212.84,238.35 180,257.31 147.16,238.35 110.77,259.37 180,299.34 "
   id="polygon2"
   style="stroke-width:9.23779" />
		<polygon
   class="st0"
   points="180,219.45 246.95,180.77 246.95,218.64 283.35,239.67 283.35,120.33 180,180.04 76.65,120.33 76.65,239.67 113.05,218.64 113.05,180.77 "
   id="polygon3"
   style="stroke-width:9.23779" />
	</g>
</g>
</svg>
